<?xml version="1.0" standalone="no"?>
<!DOCTYPE svg PUBLIC "-//W3C//DTD SVG 20010904//EN"
 "http://www.w3.org/TR/2001/REC-SVG-20010904/DTD/svg10.dtd">
<svg version="1.0" xmlns="http://www.w3.org/2000/svg"
 width="1080.000000pt" height="1080.000000pt" viewBox="0 0 1080.000000 1080.000000"
 preserveAspectRatio="xMidYMid meet">
<metadata>
Created by potrace 1.11, written by Peter Selinger 2001-2013
</metadata>
<g transform="translate(0.000000,1080.000000) scale(0.100000,-0.100000)"
fill="#000000" stroke="none">
<path d="M3592 9880 l-899 -899 899 -899 c593 -592 897 -903 893 -913 -3 -8
-18 -23 -35 -34 -16 -11 -27 -21 -25 -23 4 -4 -8 -16 -78 -79 -26 -24 -44 -43
-41 -43 3 0 -16 -18 -41 -40 -25 -22 -44 -40 -42 -40 6 0 -96 -102 -134 -134
-17 -14 -29 -26 -26 -26 2 0 -16 -22 -42 -48 -25 -26 -47 -47 -49 -46 -2 1
-22 -19 -45 -44 -67 -73 -75 -81 -81 -75 -3 4 -6 0 -6 -8 0 -8 -13 -23 -29
-34 -17 -11 -28 -21 -26 -23 4 -4 -8 -16 -78 -79 -26 -24 -43 -43 -39 -43 4 0
-6 -9 -23 -20 -16 -11 -27 -20 -22 -20 8 0 -5 -13 -75 -77 -25 -23 -45 -43
-44 -45 1 -2 -20 -24 -46 -49 -26 -26 -48 -44 -48 -42 0 3 -12 -9 -26 -26 -31
-37 -134 -140 -134 -134 0 2 -19 -18 -42 -45 -24 -27 -57 -59 -75 -73 -17 -13
-30 -26 -29 -29 1 -3 -20 -26 -46 -52 -27 -26 -48 -45 -48 -43 0 3 -19 -16
-42 -42 -68 -74 -76 -82 -82 -76 -3 4 -6 0 -6 -8 0 -8 -13 -23 -29 -34 -17
-11 -28 -21 -26 -23 4 -4 -8 -16 -76 -77 -24 -23 -44 -46 -44 -52 0 -11 65
-80 207 -220 35 -34 107 -106 160 -160 54 -54 126 -126 160 -160 35 -34 92
-92 127 -128 35 -36 66 -65 70 -66 3 0 29 -27 56 -59 28 -32 56 -59 63 -59 6
-1 12 -4 12 -9 0 -4 23 -30 50 -57 28 -28 79 -79 113 -114 34 -35 67 -69 74
-75 41 -39 148 -145 202 -201 35 -36 66 -65 70 -66 3 0 29 -27 56 -59 28 -32
55 -59 62 -59 6 -1 13 -5 15 -10 4 -11 64 -75 147 -155 34 -32 61 -60 61 -62
0 -2 19 -21 42 -43 l43 -39 -63 -65 c-34 -36 -62 -64 -62 -63 0 1 -87 -84
-193 -189 -106 -104 -192 -192 -192 -195 0 -3 -30 -35 -67 -71 -38 -36 -68
-65 -68 -64 0 1 -42 -39 -93 -89 -51 -50 -92 -93 -92 -96 0 -3 -30 -35 -67
-71 -38 -36 -68 -64 -68 -63 0 2 -27 -26 -60 -61 -33 -35 -60 -63 -60 -61 0 5
-302 -301 -311 -316 -5 -7 -9 -10 -9 -7 0 3 -90 -85 -199 -194 l-200 -200 23
-18 c25 -19 96 -89 96 -94 0 -3 92 -95 96 -95 3 0 64 -61 64 -65 0 -1 30 -31
66 -66 95 -93 169 -169 172 -180 2 -5 7 -9 12 -9 8 0 70 -58 70 -65 0 -1 29
-31 65 -66 79 -77 152 -150 264 -264 46 -47 85 -85 87 -85 7 0 64 -63 64 -71
0 -5 3 -9 8 -9 6 0 42 -34 95 -90 8 -8 43 -43 78 -77 35 -34 93 -91 128 -127
35 -36 65 -66 66 -66 4 0 65 -61 65 -64 0 -4 92 -96 96 -96 4 0 64 -61 64 -65
0 -11 108 -105 121 -105 12 0 1480 1459 1874 1863 47 48 90 87 97 87 6 0 9 3
5 6 -8 8 18 34 34 34 7 0 10 2 7 5 -7 8 58 75 73 75 7 0 10 2 7 5 -7 7 99 115
113 115 7 0 10 3 6 6 -8 8 18 34 34 34 7 0 10 2 7 5 -7 7 99 115 113 115 7 0
10 2 7 5 -7 8 58 75 73 75 7 0 10 3 6 6 -8 8 18 34 34 34 7 0 10 2 7 5 -7 8
58 75 73 75 7 0 10 2 7 5 -7 7 99 115 113 115 7 0 10 2 7 5 -7 8 58 75 73 75
7 0 10 3 6 6 -8 8 18 34 34 34 7 0 10 2 7 5 -7 7 99 115 113 115 7 0 10 3 6 6
-8 8 18 34 34 34 7 0 10 2 7 5 -7 8 58 75 73 75 7 0 10 2 7 5 -7 7 99 115 113
115 7 0 10 2 7 5 -7 8 58 75 73 75 7 0 10 3 6 6 -8 8 18 34 34 34 7 0 10 2 7
5 -7 8 58 75 73 75 7 0 10 2 7 5 -7 7 99 115 113 115 7 0 10 3 6 6 -7 7 17 34
31 34 5 0 12 10 15 22 4 12 10 19 14 15 4 -4 13 3 19 15 12 22 7 29 -86 119
-54 54 -96 100 -93 103 4 3 2 6 -4 6 -14 0 -482 468 -475 475 3 3 0 5 -6 5
-15 0 -162 147 -154 154 3 4 1 6 -5 6 -14 0 -482 468 -475 475 3 3 0 5 -6 5
-14 0 -172 158 -172 173 0 6 -3 8 -6 5 -4 -5 -243 228 -283 276 -10 12 -9 19
4 40 10 14 24 26 31 26 8 0 14 7 14 16 0 8 5 12 10 9 6 -3 10 -2 10 4 0 13
159 171 172 171 6 0 9 3 5 6 -7 8 17 34 32 34 6 0 11 7 11 16 0 8 5 12 10 9 6
-3 10 -1 10 5 0 13 108 119 115 112 3 -3 5 0 5 7 0 16 26 42 34 34 3 -4 6 -1
6 5 0 13 158 172 171 172 6 0 7 5 4 10 -3 6 1 10 9 10 9 0 16 5 16 11 0 13 68
78 75 71 3 -3 5 0 5 7 0 16 26 42 34 34 3 -4 6 -1 6 5 0 13 158 172 171 172 6
0 7 5 4 10 -3 6 1 10 9 10 9 0 16 5 16 10 0 14 77 90 92 90 6 0 9 2 6 5 -7 7
58 75 71 75 6 0 11 7 11 16 0 8 5 12 10 9 6 -3 10 -1 10 5 0 14 68 79 75 72 3
-3 5 0 5 7 0 14 108 120 115 113 3 -3 5 0 5 7 0 16 26 42 34 34 3 -4 6 -1 6 5
0 13 158 172 171 172 6 0 7 5 4 10 -3 6 1 10 9 10 9 0 16 5 16 10 0 13 77 90
91 90 5 0 8 4 4 9 -3 5 4 13 16 16 11 4 18 9 15 12 -3 4 2 12 11 18 15 11 10
20 -50 79 -37 37 -67 72 -67 78 0 6 -3 9 -6 6 -7 -7 -234 220 -234 233 0 6 -3
9 -7 6 -10 -4 -382 370 -375 378 3 3 0 5 -6 5 -14 0 -242 227 -234 234 3 3 1
6 -5 6 -14 0 -413 398 -413 412 0 6 -3 9 -6 6 -7 -8 -234 220 -234 234 0 6 -2
9 -5 6 -6 -6 -142 123 -140 132 1 3 -403 409 -897 902 l-898 896 -898 -898z"/>
</g>
</svg>
